<svg xmlns="http://www.w3.org/2000/svg" width="1440" height="560" preserveAspectRatio="none"><g fill="none" clip-path="url(&quot;#a&quot;)"><path fill="#2774c6" d="M170.44 580.74c10.99.08 23.06-1.03 30.33-9.27 7.04-7.97 5.21-19.72 4.63-30.33-.53-9.79-1-20.11-7.77-27.19-6.89-7.21-17.22-9.27-27.19-9.38-10.11-.12-20.58 1.69-27.82 8.75-7.31 7.13-9.3 17.62-9.67 27.82-.39 10.68.23 22.15 7.58 29.91 7.49 7.91 19.02 9.61 29.91 9.69"/><path stroke="#1b518b" stroke-width="7" d="M188.44 565.74c10.99.08 23.06-1.03 30.33-9.27 7.04-7.97 5.21-19.72 4.63-30.33-.53-9.79-1-20.11-7.77-27.19-6.89-7.21-17.22-9.27-27.19-9.38-10.11-.12-20.58 1.69-27.82 8.75-7.31 7.13-9.3 17.62-9.67 27.82-.39 10.68.23 22.15 7.58 29.91 7.49 7.91 19.02 9.61 29.91 9.69"/><path fill="#2774c6" d="M1238.96 492.39c9.88-.45 18.39-6.52 24.91-13.96 6.05-6.91 8.88-15.72 9.13-24.91.25-9.49-1.02-19.6-7.77-26.27-6.73-6.65-16.81-7.12-26.27-7.39-9.86-.29-20.52-.79-27.85 5.81-7.58 6.82-9.65 17.65-9.54 27.85.11 10.08 3.13 20.01 10.12 27.27 7.12 7.4 17.01 12.06 27.27 11.6"/><path stroke="#1b518b" stroke-width="7" d="M1251.96 477.39c9.88-.45 18.39-6.52 24.91-13.96 6.05-6.91 8.88-15.72 9.13-24.91.25-9.49-1.02-19.6-7.77-26.27-6.73-6.65-16.81-7.12-26.27-7.39-9.86-.29-20.52-.79-27.85 5.81-7.58 6.82-9.65 17.65-9.54 27.85.11 10.08 3.13 20.01 10.12 27.27 7.12 7.4 17.01 12.06 27.27 11.6"/><path fill="#54c076" d="M279.05 204.56c11.28-.65 18.09-11.83 25.46-20.4 6.57-7.63 12.89-15.45 13.99-25.46 1.24-11.25.16-23.61-7.7-31.75-7.95-8.24-20.3-9.39-31.75-9.11-11.11.27-22.35 2.8-30.26 10.6-7.96 7.85-11.49 19.08-11.17 30.26.31 10.85 5.61 20.5 12.88 28.55 7.76 8.59 17 17.97 28.55 17.31"/><path stroke="#348d50" stroke-width="7" d="M270.05 193.56c11.28-.65 18.09-11.83 25.46-20.4 6.57-7.63 12.89-15.45 13.99-25.46 1.24-11.25.16-23.61-7.7-31.75-7.95-8.24-20.3-9.39-31.75-9.11-11.11.27-22.35 2.8-30.26 10.6-7.96 7.85-11.49 19.08-11.17 30.26.31 10.85 5.61 20.5 12.88 28.55 7.76 8.59 17 17.97 28.55 17.31"/><path fill="#2774c6" d="M269.49 322.29c12.48.11 23.33-7.46 32.09-16.35 8.68-8.81 14.89-19.74 15.65-32.09.82-13.16-2.71-26.41-11.41-36.33-9.28-10.58-22.28-18.95-36.33-18.11-13.55.81-23.89 11.5-32.25 22.19-7.24 9.24-10.5 20.51-10.37 32.25.13 11.58 3.45 22.83 11.1 31.52 8.19 9.31 19.12 16.81 31.52 16.92"/><path stroke="#1b518b" stroke-width="7" d="M284.49 338.29c12.48.11 23.33-7.46 32.09-16.35 8.68-8.81 14.89-19.74 15.65-32.09.82-13.16-2.71-26.41-11.41-36.33-9.28-10.58-22.28-18.95-36.33-18.11-13.55.81-23.89 11.5-32.25 22.19-7.24 9.24-10.5 20.51-10.37 32.25.13 11.58 3.45 22.83 11.1 31.52 8.19 9.31 19.12 16.81 31.52 16.92"/><path fill="#488fdb" d="M921.98 563.4c13.74-.48 27.96-3.57 37.23-13.72 8.97-9.82 9.16-23.93 9.29-37.23.14-13.49.68-28.13-8.54-37.98-9.41-10.05-24.21-11.66-37.98-11.69-13.81-.03-28.29 1.85-38.16 11.51-9.95 9.74-12.26 24.24-12.57 38.16-.32 14.32.74 29.74 10.84 39.89 10.12 10.16 25.56 11.56 39.89 11.06"/><path stroke="#2164aa" stroke-width="7" d="M911.98 582.4c13.74-.48 27.96-3.57 37.23-13.72 8.97-9.82 9.16-23.93 9.29-37.23.14-13.49.68-28.13-8.54-37.98-9.41-10.05-24.21-11.66-37.98-11.69-13.81-.03-28.29 1.85-38.16 11.51-9.95 9.74-12.26 24.24-12.57 38.16-.32 14.32.74 29.74 10.84 39.89 10.12 10.16 25.56 11.56 39.89 11.06"/><path fill="#fd3f3f" d="M517.13 396.86c14.07.79 27.59-4.97 37.98-14.49 10.88-9.97 18.96-23.22 19.27-37.98.31-15.02-6.04-30.07-17.65-39.6-10.79-8.86-25.64-7.29-39.6-7.38-14.11-.09-29.23-2.11-40.13 6.85-11.67 9.59-18.3 25.07-17.04 40.13 1.19 14.2 12.74 24.29 23.24 33.93 9.87 9.06 20.55 17.78 33.93 18.54"/><path stroke="#db0202" stroke-width="7" d="M535.13 404.86c14.07.79 27.59-4.97 37.98-14.49 10.88-9.97 18.96-23.22 19.27-37.98.31-15.02-6.04-30.07-17.65-39.6-10.79-8.86-25.64-7.29-39.6-7.38-14.11-.09-29.23-2.11-40.13 6.85-11.67 9.59-18.3 25.07-17.04 40.13 1.19 14.2 12.74 24.29 23.24 33.93 9.87 9.06 20.55 17.78 33.93 18.54"/><path fill="#fd3f3f" d="M84.75 90.5c10.41-.69 17.68-9.24 25.14-16.53 7.59-7.42 17.01-14.54 17.49-25.14.49-10.87-6.52-20.84-15.1-27.53-7.68-5.99-17.79-5.92-27.53-5.7-9.42.21-18.93 1.06-26.3 6.93-8.26 6.58-14.96 15.75-15.42 26.3-.48 10.91 5.28 20.99 13.01 28.71S73.85 91.22 84.75 90.5"/><path stroke="#db0202" stroke-width="7" d="M72.75 76.5c10.41-.69 17.68-9.24 25.14-16.53 7.59-7.42 17.01-14.54 17.49-25.14.49-10.87-6.52-20.84-15.1-27.53-7.68-5.99-17.79-5.92-27.53-5.7-9.42.21-18.93 1.06-26.3 6.93-8.26 6.58-14.96 15.75-15.42 26.3-.48 10.91 5.28 20.99 13.01 28.71S61.85 77.22 72.75 76.5"/><path fill="#ff9500" d="M1138.63 140.38c12.57 1.39 25.95-.95 35.26-9.51 9.62-8.85 13.72-22.19 13.42-35.26-.29-12.78-5.12-25.57-14.99-33.69-9.17-7.55-21.82-6.86-33.69-6.38-11.2.45-22.77 1.47-31.07 9-8.66 7.85-13.68 19.39-13.12 31.07.54 11.23 8.07 20.22 15.97 28.22 7.97 8.07 16.95 15.3 28.22 16.55"/><path stroke="#b36800" stroke-width="7" d="M1128.63 125.38c12.57 1.39 25.95-.95 35.26-9.51 9.62-8.85 13.72-22.19 13.42-35.26-.29-12.78-5.12-25.57-14.99-33.69-9.17-7.55-21.82-6.86-33.69-6.38-11.2.45-22.77 1.47-31.07 9-8.66 7.85-13.68 19.39-13.12 31.07.54 11.23 8.07 20.22 15.97 28.22 7.97 8.07 16.95 15.3 28.22 16.55"/><path fill="#54c076" d="M23.72 353.24c12.88-.42 26.52.04 36.22-8.45 10.2-8.93 14.41-22.67 14.83-36.22.43-14.03-2.54-28.65-12.52-38.53-9.94-9.83-24.56-12.5-38.53-11.99-13.4.49-26.44 5.11-35.8 14.72-9.25 9.49-12.9 22.56-13.41 35.8-.53 13.88.27 29.32 10.55 38.66 10.04 9.11 25.11 6.45 38.66 6.01"/><path stroke="#348d50" stroke-width="7" d="M39.72 340.24c12.88-.42 26.52.04 36.22-8.45 10.2-8.93 14.41-22.67 14.83-36.22.43-14.03-2.54-28.65-12.52-38.53-9.94-9.83-24.56-12.5-38.53-11.99-13.4.49-26.44 5.11-35.8 14.72-9.25 9.49-12.9 22.56-13.41 35.8-.53 13.88.27 29.32 10.55 38.66 10.04 9.11 25.11 6.45 38.66 6.01"/><path fill="#fd3f3f" d="M1317.56 310.49c10.49-.73 18.48-8.82 25.24-16.88 6.06-7.22 9.74-15.83 10.11-25.24.38-9.85-1.21-20.2-8.06-27.29-6.94-7.18-17.3-9.16-27.29-9.28-10.13-.12-20.36 1.91-27.94 8.63-8.03 7.11-13.15 17.21-13.35 27.94-.2 10.91 4.65 21.21 12.29 29 7.72 7.88 18 13.88 29 13.12"/><path stroke="#db0202" stroke-width="7" d="M1304.56 296.49c10.49-.73 18.48-8.82 25.24-16.88 6.06-7.22 9.74-15.83 10.11-25.24.38-9.85-1.21-20.2-8.06-27.29-6.94-7.18-17.3-9.16-27.29-9.28-10.13-.12-20.36 1.91-27.94 8.63-8.03 7.11-13.15 17.21-13.35 27.94-.2 10.91 4.65 21.21 12.29 29 7.72 7.88 18 13.88 29 13.12"/><path fill="#fd3f3f" d="M361.67 61.71c11.22-.12 23.49.1 31.4-7.86 7.88-7.94 7.85-20.21 7.58-31.4-.26-10.83-2.08-21.64-9.05-29.93-7.61-9.06-18.11-16.09-29.93-16.45-12.12-.37-23.48 5.75-31.84 14.54-8.15 8.56-12.23 20.02-12.28 31.84-.05 11.88 3.16 24.19 12.03 32.09 8.51 7.57 20.7 7.29 32.09 7.17"/><path stroke="#db0202" stroke-width="7" d="M377.67 79.71c11.22-.12 23.49.1 31.4-7.86 7.88-7.94 7.85-20.21 7.58-31.4-.26-10.83-2.08-21.64-9.05-29.93-7.61-9.06-18.11-16.09-29.93-16.45-12.12-.37-23.48 5.75-31.84 14.54-8.15 8.56-12.23 20.02-12.28 31.84-.05 11.88 3.16 24.19 12.03 32.09 8.51 7.57 20.7 7.29 32.09 7.17"/><path fill="#54c076" d="M1070.82 563.22c13.76.06 28.16-3.23 37.35-13.47 8.86-9.87 8.73-24.1 8.25-37.35-.46-12.6-1.69-26.08-10.88-34.72-9.01-8.46-22.36-7.98-34.72-8.14-12.59-.16-26.49-1.43-35.61 7.25-9.24 8.8-9.13 22.85-9.38 35.61-.26 13.12-.74 27.21 7.96 37.03 9.07 10.25 23.34 13.73 37.03 13.79"/><path stroke="#348d50" stroke-width="7" d="M1052.82 568.22c13.76.06 28.16-3.23 37.35-13.47 8.86-9.87 8.73-24.1 8.25-37.35-.46-12.6-1.69-26.08-10.88-34.72-9.01-8.46-22.36-7.98-34.72-8.14-12.59-.16-26.49-1.43-35.61 7.25-9.24 8.8-9.13 22.85-9.38 35.61-.26 13.12-.74 27.21 7.96 37.03 9.07 10.25 23.34 13.73 37.03 13.79"/></g><defs><clipPath id="a"><path d="M0 0h1440v560H0z"/></clipPath></defs></svg>