<svg xmlns="http://www.w3.org/2000/svg" width="800" height="800" fill="none" viewBox="0 -2 33 33"><path fill="url(#a)" d="m8.783 16.624 3.44 10.321L28.085 6.678V4.802L17.86 9.587z"/><path fill="url(#b)" d="m12.223 26.945 15.862-14.872V4.802l-5.733 7.881-8.983 5.818z"/><path fill="url(#c)" d="M1.904 11.45c-1.292.48-1.275 2.315.026 2.771l6.852 2.403L28.084 4.801l-14.715 13.7 12.272 9.282c.865.654 2.118.18 2.332-.885l4.941-24.571A1.473 1.473 0 0 0 30.957.656z"/><defs><linearGradient id="a" x1="18.434" x2="18.434" y1="4.802" y2="26.945" gradientUnits="userSpaceOnUse"><stop stop-color="#FAC227"/><stop offset="1" stop-color="#FAA627"/></linearGradient><linearGradient id="b" x1="20.154" x2="20.154" y1="12.487" y2="26.945" gradientUnits="userSpaceOnUse"><stop stop-color="#FA7F27"/><stop offset="1" stop-color="#FA9427"/></linearGradient><linearGradient id="c" x1="16.944" x2="16.944" y1=".561" y2="28.082" gradientUnits="userSpaceOnUse"><stop stop-color="#FCE4B1"/><stop offset="1" stop-color="#FFD272"/></linearGradient></defs></svg>