<svg xmlns="http://www.w3.org/2000/svg" width="100" height="100"><path fill="#1E2F41" d="M58.875 7.563C62.459 10.358 64.61 12.653 66 17c.3 3.088.192 5.884 0 9h15q1.782 4.257 3.552 8.519a985 985 0 0 0 2.798 6.661C94.56 58.406 98.38 74.226 96 93c-1.831 1.831-4.388 1.126-6.825 1.136l-2.534-.007-2.656.006q-4.367.004-8.735-.002l-6.042.003q-6.34.001-12.68-.006-8.148-.006-16.294.004-6.24.005-12.482 0l-6.01.002q-4.19.003-8.383-.007l-2.534.007C5.115 94.114 5.115 94.114 4 93 .008 69.534 8.929 48.177 18 27c1-1 1-1 4.379-1.098q2.091.01 4.183.035l2.155.014q2.64.02 5.283.049l-.14-1.723c-.27-5.743.28-9.856 4.14-14.277 6.198-4.834 13.631-6.028 20.875-2.437"/><path fill="#516680" d="M8 69a979 979 0 0 1 12.653-.275q2.151-.037 4.303-.102c2.063-.06 4.125-.09 6.189-.111l3.76-.08L38 69c1.67 2.489 1.67 2.489 3 5 1.948.759 1.948.759 4.125.664l2.39.02L50 74.625l2.484.059 2.391-.02 2.18-.017c2.234-.494 2.234-.494 3.274-3.158L62 69c3.094-.568 3.094-.568 6.855-.488l2.005.021c2.11.028 4.218.09 6.328.154q2.147.038 4.294.069c3.508.05 7.01.149 10.518.244v22H8z"/><path fill="#51667F" d="m22 30 7.188-.312 2.235-.138c3.966-.083 5.397.295 8.432 2.91L42 35l2.125.938C46.996 37.564 47.72 40.058 49 43h2l1.688-3.312C54.624 36.275 56.475 34.808 60 33l1.172-1.566c2.879-2.258 6.026-1.748 9.516-1.622L78 30v22H22z"/><path fill="#B3BED0" d="M21 55h58c3 7 3 7 3 11l-22 1-2 5H42l-2-5-22-1c1-6 1-6 3-11"/><path fill="#DC6475" d="M55 10c3.126 1.672 5.393 3.786 7 7 .62 4.921.971 9.492-2.187 13.563C57.01 32.992 55.646 33.792 52 34l-1 4h-2l-1-4-2.187-.125c-3.152-.98-4.857-2.3-6.856-4.934C37.047 25.068 37.136 21.166 38 17c3.905-7.134 9.428-8.067 17-7"/><path fill="#2F4C63" d="M81 38c3.456 3.456 4.493 8.336 6.125 12.875l1.129 3.05 1.066 2.942.977 2.691C91 62 91 62 91 66h-6c-4.051-9.549-4.464-17.838-4-28m-63 0h1c.464 10.162.051 18.451-4 28H9c.659-6.126 2.922-11.646 5.063-17.375l1.142-3.098Q16.595 41.761 18 38"/><path fill="#334" d="M43 15c2.929.628 5.361 1.586 8 3l1.313-1.5C54 15 54 15 57 15c-.628 2.929-1.586 5.361-3 8l1.5 1.313C57 26 57 26 57 29c-2.929-.628-5.361-1.586-8-3l-1.312 1.5C46 29 46 29 43 29c.628-2.929 1.586-5.361 3-8l-1.5-1.312C43 18 43 18 43 15"/><path fill="#273142" d="m54 33 3 1-4 5-2-1c.375-1.937.375-1.937 1-4z"/></svg>